<?xml version="1.0" standalone="no"?>
<!DOCTYPE svg PUBLIC "-//W3C//DTD SVG 20010904//EN"
 "http://www.w3.org/TR/2001/REC-SVG-20010904/DTD/svg10.dtd">
<svg version="1.0" xmlns="http://www.w3.org/2000/svg"
 width="32.000000pt" height="32.000000pt" viewBox="0 0 32.000000 32.000000"
 preserveAspectRatio="xMidYMid meet">

<g transform="translate(0.000000,32.000000) scale(0.100000,-0.100000)"
fill="#000000" stroke="none">
<path d="M40 265 c0 -9 20 -38 45 -64 38 -41 45 -54 45 -89 0 -36 4 -44 30
-57 l30 -16 0 57 c0 54 3 60 45 105 70 75 66 79 -75 79 -101 0 -120 -2 -120
-15z m176 -57 c-39 -45 -46 -59 -46 -96 0 -26 -4 -41 -10 -37 -5 3 -10 23 -10
43 0 30 -9 48 -46 90 l-46 52 102 0 102 0 -46 -52z"/>
</g>
</svg>
